<mxfile host="app.diagrams.net" modified="2023-09-28T18:43:26.651Z" agent="Mozilla/5.0 (X11; Linux x86_64; rv:109.0) Gecko/20100101 Firefox/114.0" etag="xupSsTWHSVOIZ3YKHLd8" version="22.0.0" type="github">
  <diagram name="Página-1" id="QY8tuvMtyV4yDNT9SkAD">
    <mxGraphModel dx="1658" dy="908" grid="1" gridSize="10" guides="1" tooltips="1" connect="1" arrows="1" fold="1" page="1" pageScale="1" pageWidth="827" pageHeight="1169" math="0" shadow="0">
      <root>
        <mxCell id="0" />
        <mxCell id="1" parent="0" />
        <mxCell id="477z70IJDv5h19LHjHSA-6" style="edgeStyle=orthogonalEdgeStyle;rounded=0;orthogonalLoop=1;jettySize=auto;html=1;endArrow=none;endFill=0;" edge="1" parent="1" source="477z70IJDv5h19LHjHSA-1">
          <mxGeometry relative="1" as="geometry">
            <mxPoint x="200" y="480" as="targetPoint" />
          </mxGeometry>
        </mxCell>
        <mxCell id="477z70IJDv5h19LHjHSA-1" value="Camionero" style="rounded=0;whiteSpace=wrap;html=1;fillColor=#f8cecc;strokeColor=#b85450;" vertex="1" parent="1">
          <mxGeometry x="150" y="330" width="100" height="60" as="geometry" />
        </mxCell>
        <mxCell id="477z70IJDv5h19LHjHSA-4" style="edgeStyle=orthogonalEdgeStyle;rounded=0;orthogonalLoop=1;jettySize=auto;html=1;entryX=0;entryY=0.5;entryDx=0;entryDy=0;endArrow=none;endFill=0;" edge="1" parent="1" source="477z70IJDv5h19LHjHSA-3" target="477z70IJDv5h19LHjHSA-5">
          <mxGeometry relative="1" as="geometry">
            <mxPoint x="460" y="370" as="targetPoint" />
          </mxGeometry>
        </mxCell>
        <mxCell id="477z70IJDv5h19LHjHSA-3" value="Conduce" style="rhombus;whiteSpace=wrap;html=1;fillColor=#dae8fc;strokeColor=#6c8ebf;" vertex="1" parent="1">
          <mxGeometry x="320" y="320" width="80" height="80" as="geometry" />
        </mxCell>
        <mxCell id="477z70IJDv5h19LHjHSA-5" value="Camion" style="rounded=0;whiteSpace=wrap;html=1;fillColor=#f8cecc;strokeColor=#b85450;" vertex="1" parent="1">
          <mxGeometry x="470" y="330" width="100" height="60" as="geometry" />
        </mxCell>
        <mxCell id="477z70IJDv5h19LHjHSA-12" style="edgeStyle=orthogonalEdgeStyle;rounded=0;orthogonalLoop=1;jettySize=auto;html=1;endArrow=none;endFill=0;" edge="1" parent="1" source="477z70IJDv5h19LHjHSA-11">
          <mxGeometry relative="1" as="geometry">
            <mxPoint x="200" y="640" as="targetPoint" />
          </mxGeometry>
        </mxCell>
        <mxCell id="477z70IJDv5h19LHjHSA-11" value="Transporta" style="rhombus;whiteSpace=wrap;html=1;fillColor=#dae8fc;strokeColor=#6c8ebf;" vertex="1" parent="1">
          <mxGeometry x="160" y="480" width="80" height="80" as="geometry" />
        </mxCell>
        <mxCell id="477z70IJDv5h19LHjHSA-13" value="Paquete" style="rounded=0;whiteSpace=wrap;html=1;fillColor=#f8cecc;strokeColor=#b85450;" vertex="1" parent="1">
          <mxGeometry x="140" y="640" width="110" height="60" as="geometry" />
        </mxCell>
        <mxCell id="477z70IJDv5h19LHjHSA-16" value="" style="endArrow=none;html=1;rounded=0;endFill=0;" edge="1" parent="1" target="477z70IJDv5h19LHjHSA-30">
          <mxGeometry width="50" height="50" relative="1" as="geometry">
            <mxPoint x="200" y="330" as="sourcePoint" />
            <mxPoint x="280" y="160" as="targetPoint" />
          </mxGeometry>
        </mxCell>
        <mxCell id="477z70IJDv5h19LHjHSA-17" value="" style="endArrow=none;html=1;rounded=0;exitX=0.5;exitY=0;exitDx=0;exitDy=0;endFill=0;" edge="1" parent="1" source="477z70IJDv5h19LHjHSA-1" target="477z70IJDv5h19LHjHSA-29">
          <mxGeometry width="50" height="50" relative="1" as="geometry">
            <mxPoint x="140" y="300" as="sourcePoint" />
            <mxPoint x="200" y="120" as="targetPoint" />
          </mxGeometry>
        </mxCell>
        <mxCell id="477z70IJDv5h19LHjHSA-19" value="" style="endArrow=none;html=1;rounded=0;exitX=0.5;exitY=0;exitDx=0;exitDy=0;endFill=0;" edge="1" parent="1" source="477z70IJDv5h19LHjHSA-1" target="477z70IJDv5h19LHjHSA-26">
          <mxGeometry width="50" height="50" relative="1" as="geometry">
            <mxPoint x="70" y="280" as="sourcePoint" />
            <mxPoint x="80" y="200" as="targetPoint" />
          </mxGeometry>
        </mxCell>
        <mxCell id="477z70IJDv5h19LHjHSA-26" value="DNI" style="ellipse;whiteSpace=wrap;html=1;fillColor=#e1d5e7;strokeColor=#9673a6;" vertex="1" parent="1">
          <mxGeometry x="20" y="180" width="50" height="30" as="geometry" />
        </mxCell>
        <mxCell id="477z70IJDv5h19LHjHSA-28" value="" style="endArrow=none;html=1;rounded=0;exitX=0.5;exitY=0;exitDx=0;exitDy=0;endFill=0;" edge="1" parent="1" source="477z70IJDv5h19LHjHSA-1" target="477z70IJDv5h19LHjHSA-27">
          <mxGeometry width="50" height="50" relative="1" as="geometry">
            <mxPoint x="200" y="330" as="sourcePoint" />
            <mxPoint x="120" y="160" as="targetPoint" />
          </mxGeometry>
        </mxCell>
        <mxCell id="477z70IJDv5h19LHjHSA-27" value="Nombre" style="ellipse;whiteSpace=wrap;html=1;fillColor=#fff2cc;strokeColor=#d6b656;" vertex="1" parent="1">
          <mxGeometry x="40" y="100" width="60" height="40" as="geometry" />
        </mxCell>
        <mxCell id="477z70IJDv5h19LHjHSA-29" value="Teléfono" style="ellipse;whiteSpace=wrap;html=1;fillColor=#fff2cc;strokeColor=#d6b656;" vertex="1" parent="1">
          <mxGeometry x="100" y="60" width="75" height="40" as="geometry" />
        </mxCell>
        <mxCell id="477z70IJDv5h19LHjHSA-30" value="Dirección" style="ellipse;whiteSpace=wrap;html=1;fillColor=#fff2cc;strokeColor=#d6b656;" vertex="1" parent="1">
          <mxGeometry x="200" y="60" width="80" height="40" as="geometry" />
        </mxCell>
        <mxCell id="477z70IJDv5h19LHjHSA-32" value="" style="endArrow=none;html=1;rounded=0;endFill=0;" edge="1" parent="1" target="477z70IJDv5h19LHjHSA-31">
          <mxGeometry width="50" height="50" relative="1" as="geometry">
            <mxPoint x="200" y="330" as="sourcePoint" />
            <mxPoint x="320" y="200" as="targetPoint" />
          </mxGeometry>
        </mxCell>
        <mxCell id="477z70IJDv5h19LHjHSA-31" value="Salario" style="ellipse;whiteSpace=wrap;html=1;fillColor=#fff2cc;strokeColor=#d6b656;" vertex="1" parent="1">
          <mxGeometry x="290" y="90" width="70" height="40" as="geometry" />
        </mxCell>
        <mxCell id="477z70IJDv5h19LHjHSA-33" value="" style="endArrow=none;html=1;rounded=0;" edge="1" parent="1" source="477z70IJDv5h19LHjHSA-34">
          <mxGeometry width="50" height="50" relative="1" as="geometry">
            <mxPoint x="200" y="330" as="sourcePoint" />
            <mxPoint x="340" y="200" as="targetPoint" />
          </mxGeometry>
        </mxCell>
        <mxCell id="477z70IJDv5h19LHjHSA-35" value="" style="endArrow=none;html=1;rounded=0;" edge="1" parent="1" target="477z70IJDv5h19LHjHSA-34">
          <mxGeometry width="50" height="50" relative="1" as="geometry">
            <mxPoint x="200" y="330" as="sourcePoint" />
            <mxPoint x="340" y="200" as="targetPoint" />
          </mxGeometry>
        </mxCell>
        <mxCell id="477z70IJDv5h19LHjHSA-34" value="Población" style="ellipse;whiteSpace=wrap;html=1;fillColor=#fff2cc;strokeColor=#d6b656;" vertex="1" parent="1">
          <mxGeometry x="320" y="177.5" width="60" height="35" as="geometry" />
        </mxCell>
        <mxCell id="477z70IJDv5h19LHjHSA-36" style="edgeStyle=orthogonalEdgeStyle;rounded=0;orthogonalLoop=1;jettySize=auto;html=1;exitX=0.5;exitY=1;exitDx=0;exitDy=0;" edge="1" parent="1" source="477z70IJDv5h19LHjHSA-34" target="477z70IJDv5h19LHjHSA-34">
          <mxGeometry relative="1" as="geometry" />
        </mxCell>
        <mxCell id="477z70IJDv5h19LHjHSA-37" value="" style="endArrow=none;html=1;rounded=0;" edge="1" parent="1" source="477z70IJDv5h19LHjHSA-47">
          <mxGeometry width="50" height="50" relative="1" as="geometry">
            <mxPoint x="520" y="330" as="sourcePoint" />
            <mxPoint x="610" y="290" as="targetPoint" />
          </mxGeometry>
        </mxCell>
        <mxCell id="477z70IJDv5h19LHjHSA-38" value="" style="endArrow=none;html=1;rounded=0;" edge="1" parent="1" source="477z70IJDv5h19LHjHSA-45">
          <mxGeometry width="50" height="50" relative="1" as="geometry">
            <mxPoint x="520" y="330" as="sourcePoint" />
            <mxPoint x="600" y="200" as="targetPoint" />
          </mxGeometry>
        </mxCell>
        <mxCell id="477z70IJDv5h19LHjHSA-39" value="" style="endArrow=none;html=1;rounded=0;" edge="1" parent="1" source="477z70IJDv5h19LHjHSA-43">
          <mxGeometry width="50" height="50" relative="1" as="geometry">
            <mxPoint x="520" y="330" as="sourcePoint" />
            <mxPoint x="480" y="200" as="targetPoint" />
          </mxGeometry>
        </mxCell>
        <mxCell id="477z70IJDv5h19LHjHSA-40" value="" style="endArrow=none;html=1;rounded=0;exitX=0.5;exitY=0;exitDx=0;exitDy=0;" edge="1" parent="1" source="477z70IJDv5h19LHjHSA-41">
          <mxGeometry width="50" height="50" relative="1" as="geometry">
            <mxPoint x="410" y="280" as="sourcePoint" />
            <mxPoint x="440" y="280" as="targetPoint" />
          </mxGeometry>
        </mxCell>
        <mxCell id="477z70IJDv5h19LHjHSA-42" value="" style="endArrow=none;html=1;rounded=0;exitX=0.5;exitY=0;exitDx=0;exitDy=0;" edge="1" parent="1" source="477z70IJDv5h19LHjHSA-5" target="477z70IJDv5h19LHjHSA-41">
          <mxGeometry width="50" height="50" relative="1" as="geometry">
            <mxPoint x="520" y="330" as="sourcePoint" />
            <mxPoint x="440" y="280" as="targetPoint" />
          </mxGeometry>
        </mxCell>
        <mxCell id="477z70IJDv5h19LHjHSA-41" value="Matrícula" style="ellipse;whiteSpace=wrap;html=1;fillColor=#e1d5e7;strokeColor=#9673a6;" vertex="1" parent="1">
          <mxGeometry x="400" y="260" width="70" height="40" as="geometry" />
        </mxCell>
        <mxCell id="477z70IJDv5h19LHjHSA-44" value="" style="endArrow=none;html=1;rounded=0;" edge="1" parent="1" target="477z70IJDv5h19LHjHSA-43">
          <mxGeometry width="50" height="50" relative="1" as="geometry">
            <mxPoint x="520" y="330" as="sourcePoint" />
            <mxPoint x="480" y="200" as="targetPoint" />
          </mxGeometry>
        </mxCell>
        <mxCell id="477z70IJDv5h19LHjHSA-43" value="Modelo" style="ellipse;whiteSpace=wrap;html=1;fillColor=#fff2cc;strokeColor=#d6b656;" vertex="1" parent="1">
          <mxGeometry x="450" y="180" width="70" height="38" as="geometry" />
        </mxCell>
        <mxCell id="477z70IJDv5h19LHjHSA-46" value="" style="endArrow=none;html=1;rounded=0;" edge="1" parent="1" target="477z70IJDv5h19LHjHSA-45">
          <mxGeometry width="50" height="50" relative="1" as="geometry">
            <mxPoint x="520" y="330" as="sourcePoint" />
            <mxPoint x="600" y="200" as="targetPoint" />
          </mxGeometry>
        </mxCell>
        <mxCell id="477z70IJDv5h19LHjHSA-45" value="Tipo" style="ellipse;whiteSpace=wrap;html=1;fillColor=#fff2cc;strokeColor=#d6b656;" vertex="1" parent="1">
          <mxGeometry x="560" y="180" width="70" height="34" as="geometry" />
        </mxCell>
        <mxCell id="477z70IJDv5h19LHjHSA-48" value="" style="endArrow=none;html=1;rounded=0;" edge="1" parent="1" target="477z70IJDv5h19LHjHSA-47">
          <mxGeometry width="50" height="50" relative="1" as="geometry">
            <mxPoint x="520" y="330" as="sourcePoint" />
            <mxPoint x="610" y="290" as="targetPoint" />
          </mxGeometry>
        </mxCell>
        <mxCell id="477z70IJDv5h19LHjHSA-47" value="Potencia" style="ellipse;whiteSpace=wrap;html=1;fillColor=#fff2cc;strokeColor=#d6b656;" vertex="1" parent="1">
          <mxGeometry x="580" y="260" width="70" height="40" as="geometry" />
        </mxCell>
        <mxCell id="477z70IJDv5h19LHjHSA-49" value="" style="endArrow=none;html=1;rounded=0;" edge="1" parent="1" source="477z70IJDv5h19LHjHSA-54">
          <mxGeometry width="50" height="50" relative="1" as="geometry">
            <mxPoint x="80" y="760" as="sourcePoint" />
            <mxPoint x="200" y="700" as="targetPoint" />
          </mxGeometry>
        </mxCell>
        <mxCell id="477z70IJDv5h19LHjHSA-50" value="" style="endArrow=none;html=1;rounded=0;" edge="1" parent="1" source="477z70IJDv5h19LHjHSA-52">
          <mxGeometry width="50" height="50" relative="1" as="geometry">
            <mxPoint x="200" y="800" as="sourcePoint" />
            <mxPoint x="200" y="700" as="targetPoint" />
          </mxGeometry>
        </mxCell>
        <mxCell id="477z70IJDv5h19LHjHSA-51" value="" style="endArrow=none;html=1;rounded=0;" edge="1" parent="1" target="477z70IJDv5h19LHjHSA-53">
          <mxGeometry width="50" height="50" relative="1" as="geometry">
            <mxPoint x="200" y="700" as="sourcePoint" />
            <mxPoint x="320" y="760" as="targetPoint" />
          </mxGeometry>
        </mxCell>
        <mxCell id="477z70IJDv5h19LHjHSA-52" value="Destinatario" style="ellipse;whiteSpace=wrap;html=1;fillColor=#fff2cc;strokeColor=#d6b656;" vertex="1" parent="1">
          <mxGeometry x="260" y="770" width="80" height="50" as="geometry" />
        </mxCell>
        <mxCell id="477z70IJDv5h19LHjHSA-53" value="Dirección" style="ellipse;whiteSpace=wrap;html=1;fillColor=#fff2cc;strokeColor=#d6b656;" vertex="1" parent="1">
          <mxGeometry x="285" y="700" width="75" height="50" as="geometry" />
        </mxCell>
        <mxCell id="477z70IJDv5h19LHjHSA-54" value="Descripción" style="ellipse;whiteSpace=wrap;html=1;fillColor=#fff2cc;strokeColor=#d6b656;" vertex="1" parent="1">
          <mxGeometry x="160" y="780" width="80" height="50" as="geometry" />
        </mxCell>
        <mxCell id="477z70IJDv5h19LHjHSA-56" value="" style="endArrow=none;html=1;rounded=0;" edge="1" parent="1">
          <mxGeometry relative="1" as="geometry">
            <mxPoint x="250" y="359.5" as="sourcePoint" />
            <mxPoint x="320" y="360" as="targetPoint" />
          </mxGeometry>
        </mxCell>
        <mxCell id="477z70IJDv5h19LHjHSA-63" value="" style="endArrow=none;html=1;rounded=0;" edge="1" parent="1">
          <mxGeometry width="50" height="50" relative="1" as="geometry">
            <mxPoint x="110" y="760" as="sourcePoint" />
            <mxPoint x="200" y="700" as="targetPoint" />
          </mxGeometry>
        </mxCell>
        <mxCell id="477z70IJDv5h19LHjHSA-64" value="Código de paquete" style="ellipse;whiteSpace=wrap;html=1;fillColor=#e1d5e7;strokeColor=#9673a6;" vertex="1" parent="1">
          <mxGeometry x="50" y="750" width="90" height="50" as="geometry" />
        </mxCell>
        <mxCell id="477z70IJDv5h19LHjHSA-66" value="1.N" style="text;html=1;align=center;verticalAlign=middle;resizable=0;points=[];autosize=1;strokeColor=none;fillColor=none;" vertex="1" parent="1">
          <mxGeometry x="250" y="330" width="40" height="30" as="geometry" />
        </mxCell>
        <mxCell id="477z70IJDv5h19LHjHSA-67" value="1.N" style="text;html=1;align=center;verticalAlign=middle;resizable=0;points=[];autosize=1;strokeColor=none;fillColor=none;" vertex="1" parent="1">
          <mxGeometry x="430" y="330" width="40" height="30" as="geometry" />
        </mxCell>
        <mxCell id="477z70IJDv5h19LHjHSA-68" value="&lt;div&gt;N.M&lt;/div&gt;" style="text;html=1;align=center;verticalAlign=middle;resizable=0;points=[];autosize=1;strokeColor=none;fillColor=none;" vertex="1" parent="1">
          <mxGeometry x="335" y="290" width="50" height="30" as="geometry" />
        </mxCell>
        <mxCell id="477z70IJDv5h19LHjHSA-69" value="1.N" style="text;html=1;align=center;verticalAlign=middle;resizable=0;points=[];autosize=1;strokeColor=none;fillColor=none;" vertex="1" parent="1">
          <mxGeometry x="240" y="505" width="40" height="30" as="geometry" />
        </mxCell>
        <mxCell id="477z70IJDv5h19LHjHSA-70" value="1.N" style="text;html=1;align=center;verticalAlign=middle;resizable=0;points=[];autosize=1;strokeColor=none;fillColor=none;" vertex="1" parent="1">
          <mxGeometry x="200" y="610" width="40" height="30" as="geometry" />
        </mxCell>
        <mxCell id="477z70IJDv5h19LHjHSA-71" value="1.1" style="text;html=1;align=center;verticalAlign=middle;resizable=0;points=[];autosize=1;strokeColor=none;fillColor=none;" vertex="1" parent="1">
          <mxGeometry x="200" y="390" width="40" height="30" as="geometry" />
        </mxCell>
        <mxCell id="477z70IJDv5h19LHjHSA-72" value="" style="endArrow=none;html=1;rounded=0;" edge="1" parent="1">
          <mxGeometry width="50" height="50" relative="1" as="geometry">
            <mxPoint x="360" y="440" as="sourcePoint" />
            <mxPoint x="360" y="400" as="targetPoint" />
          </mxGeometry>
        </mxCell>
        <mxCell id="477z70IJDv5h19LHjHSA-73" value="Fecha" style="ellipse;whiteSpace=wrap;html=1;fillColor=#fff2cc;strokeColor=#d6b656;" vertex="1" parent="1">
          <mxGeometry x="320" y="430" width="80" height="50" as="geometry" />
        </mxCell>
      </root>
    </mxGraphModel>
  </diagram>
</mxfile>
